# xmcd CD database file
#
# Track frame offsets:
#	150
#	22314
#	39036
#	56036
#	75435
#	92482
#	116859
#	134542
#	153038
#	170581
#
# Disc length: 2442 seconds
#
# Revision: 0
# Processed by: cddbd v1.5.2PL0 Copyright (c) Steve Scherf et al.
# Submitted via: CDex 1.51
#
DISCID=7809880a
DTITLE=Era - Classics
DYEAR=2009
DGENRE=New Age
TTITLE0=Caccinni and Redemption and Ave Maria
TTITLE1=Vivaldi and Sunset Drive and Spring - Four Seasons
TTITLE2=Verdi and Arising Force and Nabucco
TTITLE3=Verdi and The Chosen Path and La Forza Del Destino
TTITLE4=Bach and Ritus Pacis and Concerto No 3
TTITLE5=Malher and Adagieto and 5th Symphony
TTITLE6=Haendel and Dark Wonders and Sarabande and Ombra Mai Fu
TTITLE7=Vivaldi and Winds Of Hope and Winter - Four Seasons
TTITLE8=Levi and Sombre Day
TTITLE9=Barber and Adagio For Strings
EXTD=YEAR: 2009
EXTT0=
EXTT1=
EXTT2=
EXTT3=
EXTT4=
EXTT5=
EXTT6=
EXTT7=
EXTT8=
EXTT9=
PLAYORDER=
